PathFileType	4	(X/Y/Z)	s06c0403.trc
DataRate	CameraRate	NumFrames	NumMarkers	Units	OrigDataRate	OrigDataStartFrame	OrigNumFrames
200	200	6	48	mm	200	1250	2000
Frame#	Time	racr			lacr			c7			jug			rlel			rdr			llel			ldr			s2			lic			ric			lasi			rasi			rpsi			lpsi			rgt			lgt			rth1			rth2			rth3			rth4			rlfc			rmfc			rsh1			rsh2			rsh3			rsh4			rlmal			rcal			rtoe			rmt5			lth1			lth2			lth4			lth3			llfc			lmfc			llmal			lcal			lmt5			lsh1			lsh2			lsh3			lsh4			ltoe			SBIKE			LBIKE			RBIKE			
		X1	Y1	Z1	X2	Y2	Z2	X3	Y3	Z3	X4	Y4	Z4	X5	Y5	Z5	X6	Y6	Z6	X7	Y7	Z7	X8	Y8	Z8	X9	Y9	Z9	X10	Y10	Z10	X11	Y11	Z11	X12	Y12	Z12	X13	Y13	Z13	X14	Y14	Z14	X15	Y15	Z15	X16	Y16	Z16	X17	Y17	Z17	X18	Y18	Z18	X19	Y19	Z19	X20	Y20	Z20	X21	Y21	Z21	X22	Y22	Z22	X23	Y23	Z23	X24	Y24	Z24	X25	Y25	Z25	X26	Y26	Z26	X27	Y27	Z27	X28	Y28	Z28	X29	Y29	Z29	X30	Y30	Z30	X31	Y31	Z31	X32	Y32	Z32	X33	Y33	Z33	X34	Y34	Z34	X35	Y35	Z35	X36	Y36	Z36	X37	Y37	Z37	X38	Y38	Z38	X39	Y39	Z39	X40	Y40	Z40	X41	Y41	Z41	X42	Y42	Z42	X43	Y43	Z43	X44	Y44	Z44	X45	Y45	Z45	X46	Y46	Z46	X47	Y47	Z47	X48	Y48	Z48	
1250	6.2500	793.195420	1206.810506	-71.347398	816.727692	1200.231678	-406.124657	836.029187	1293.411526	-240.722833	771.643716	1136.267286	-238.015099	567.840421	1107.993078	69.244983	686.030816	952.093154	-32.298600	576.978441	1106.160036	-519.832268	690.003203	941.228854	-433.478976	253.448631	1196.404955	-237.130832	404.164490	1134.269774	-401.537558	383.841848	1113.274588	-66.054904	405.814561	1074.790129	-367.254962	401.867797	1065.142147	-103.411402	293.625279	1219.353317	-200.565654	293.409809	1225.673165	-258.775698	314.785891	1039.767812	-49.792412	371.242575	1090.975000	-426.689641	331.565591	909.642832	-21.045529	354.300875	821.599763	-22.244187	331.871503	738.077956	-32.080163	390.447484	822.882016	-34.108954	327.170043	632.826210	-42.716886	322.028719	607.089062	-150.061670	291.215430	514.801846	-18.968908	289.562410	428.643812	-35.949793	246.838972	353.359876	-42.262481	314.412201	426.308513	-68.533427	220.003784	278.144499	-50.057535	156.478136	279.311597	-98.912311	391.032018	130.567850	-94.966423	295.403676	160.922567	-26.265050	422.829133	985.050560	-446.194115	492.461848	932.848719	-438.980411	519.181197	953.899266	-423.071401	527.289006	850.411512	-437.650980	543.027771	743.975673	-407.035002	540.646310	731.470478	-290.392182	203.124437	601.700867	-382.640410	144.578626	649.288971	-335.070639	193.110866	455.504077	-399.071710	453.645593	687.931739	-422.941579	384.054257	642.118034	-397.791664	296.212966	629.982420	-395.866483	397.318227	623.133670	-365.933810	235.643861	381.863429	-337.333420	-203.788730	865.049421	-210.140671	-50.901460	80.411782	-411.283509	-50.871112	79.816236	-13.806954	
1251	6.2550	793.844745	1209.079089	-73.787442	815.395825	1200.824193	-408.610412	835.247783	1293.986180	-242.885366	770.924535	1136.843661	-238.702130	568.179765	1108.229343	67.818394	687.173454	951.940985	-32.961422	576.023918	1105.315667	-521.321054	689.840146	941.360435	-433.671203	252.622231	1194.712636	-233.479463	402.221348	1135.787749	-401.356639	386.585264	1110.999396	-65.978157	404.531083	1075.924953	-368.012709	404.181155	1063.320423	-104.115227	293.186772	1217.563761	-197.604436	292.267934	1224.614543	-255.721500	316.286127	1035.774442	-49.324043	369.192784	1092.652362	-426.908678	329.455613	907.413912	-21.206776	349.525070	818.823219	-22.523317	325.052018	735.999718	-32.795790	385.995323	819.207303	-34.965388	318.506791	630.984859	-43.397171	312.850107	605.608295	-151.152823	283.121723	513.111865	-19.055311	281.987719	426.763961	-36.103179	239.692279	351.213261	-42.328232	307.132022	424.258065	-68.755460	213.408584	275.976489	-49.980255	150.610630	278.718109	-99.046735	381.307281	123.791470	-94.728077	286.429996	156.629219	-26.155605	421.804248	987.012739	-447.843291	493.155328	936.745832	-440.152154	519.232697	958.608519	-424.187939	530.136122	855.486527	-438.933675	550.006751	750.027217	-406.492451	548.001238	738.142835	-289.259944	210.666327	606.392601	-382.528761	150.921176	653.014702	-335.190835	203.038218	460.191808	-399.062950	461.342732	693.874903	-422.239984	392.018469	647.891448	-397.330253	303.970899	635.519013	-395.610338	404.949358	628.671768	-365.563948	247.477970	388.456032	-338.901598	-203.871966	865.040543	-210.048247	-50.893508	80.431430	-411.260223	-50.907110	79.866588	-13.814859	
1252	6.2600	793.685091	1211.823005	-75.259381	814.098087	1201.392382	-411.140800	834.437954	1294.448668	-244.950374	769.445213	1137.644331	-238.728211	568.799313	1108.348910	66.432983	688.643658	951.740590	-33.481947	575.205781	1104.446230	-522.964731	689.682112	941.914302	-433.995065	251.921957	1193.422481	-229.984655	400.079700	1137.741418	-401.323102	389.053778	1108.922967	-65.706666	403.793798	1077.690857	-368.677564	405.964240	1061.955514	-105.020639	290.186180	1217.688837	-194.402164	291.204606	1223.348902	-253.020807	317.920653	1032.134010	-48.701874	367.004098	1093.966638	-427.160561	328.124027	905.759023	-21.914486	346.419638	816.876079	-23.519241	318.629352	734.732736	-33.350170	381.742832	816.318514	-36.002186	310.066670	629.852542	-44.051557	302.583907	605.203466	-152.311095	275.174090	511.940095	-19.357488	274.528049	425.650367	-36.325813	232.747536	349.763057	-42.417895	298.883619	422.908265	-68.984878	207.285580	274.492750	-50.107151	145.184112	278.927062	-99.166238	371.369280	117.258704	-94.527350	277.260776	152.917235	-26.115655	420.447924	988.559242	-450.109645	493.247058	940.560205	-440.795794	518.362420	963.047829	-424.306310	532.752530	860.537293	-439.665521	556.523594	756.464652	-406.117587	555.086484	744.470873	-288.437187	218.118740	610.414309	-382.237520	157.262870	655.854090	-335.241824	213.211434	464.204924	-399.142180	468.769677	699.819377	-421.446555	399.653401	653.307674	-396.904050	311.626174	640.538984	-395.349574	412.632244	633.951901	-365.313578	258.306594	392.513745	-337.604504	-203.945169	865.002942	-209.994005	-50.917271	80.376848	-411.210884	-50.864504	79.754722	-13.791399	
1253	6.2650	793.618047	1214.047358	-76.652921	812.868712	1201.777459	-413.549224	833.696722	1294.887294	-246.830841	768.248016	1138.342451	-238.946598	569.626005	1108.381819	65.089749	690.397594	951.370738	-33.895914	574.553816	1103.616716	-524.744259	689.482750	942.212624	-433.703519	251.242427	1192.485070	-226.398758	398.156497	1139.871693	-401.415799	391.603005	1106.412778	-66.040561	403.312455	1079.759746	-369.314454	407.676817	1059.620389	-105.912426	291.906968	1215.571039	-191.522189	290.572393	1222.680680	-250.633213	319.750253	1029.062072	-48.160265	364.863506	1095.235294	-427.422146	326.723967	904.998209	-22.611773	342.468825	815.446611	-23.965666	312.371159	734.218461	-34.284302	377.601410	814.370694	-36.453151	302.056205	629.249527	-44.643898	294.038137	604.527930	-153.477913	267.390099	511.450368	-19.720446	267.329970	425.065647	-36.452424	225.938508	349.040138	-42.440432	291.905069	422.572925	-68.928303	201.569228	273.657745	-50.211037	140.192673	280.300892	-99.379002	361.125752	110.929411	-94.411432	268.242436	149.750611	-26.031790	419.432553	989.930553	-451.293252	493.076232	944.198998	-440.311313	516.888946	967.128412	-424.174735	535.138752	865.626210	-439.939820	562.738416	762.875990	-405.651077	561.363223	751.232463	-287.393702	225.552684	613.672939	-381.825369	163.577452	657.951785	-335.210208	223.549945	467.645311	-399.262973	475.914611	705.554820	-420.699315	407.083926	658.329279	-396.583487	319.117785	644.922512	-395.092124	420.202011	638.856437	-365.061621	269.922106	396.894135	-337.599039	-204.050262	864.988916	-209.965354	-50.907391	80.381242	-411.205827	-50.882121	79.782040	-13.784967	
1254	6.2700	793.227466	1216.209836	-78.167703	811.718997	1202.024749	-415.899563	832.977451	1295.281885	-248.584852	766.860230	1139.092643	-239.252727	570.515704	1108.389336	63.800988	692.201575	950.946506	-34.186764	574.024772	1102.739355	-526.605147	689.218195	942.508889	-433.205292	250.614384	1192.234598	-223.162067	396.390388	1142.739442	-402.062742	393.051422	1103.508195	-70.576708	403.161427	1082.601360	-370.549697	405.521985	1056.487531	-111.459072	291.793001	1215.177475	-188.684321	289.995354	1222.630244	-248.383477	321.320720	1026.719463	-47.568668	363.111493	1097.082521	-428.384609	325.286995	904.880468	-23.431124	339.246433	815.021868	-25.466871	307.317255	734.411348	-34.528194	374.521977	812.794838	-37.482521	294.582519	629.355339	-45.301614	286.259357	604.259777	-154.613602	260.013695	511.637313	-20.031600	260.487517	425.249942	-36.510495	219.555629	348.857575	-42.437802	285.124338	422.578952	-68.878919	196.284814	273.652327	-50.171908	135.759737	282.337988	-99.472651	350.543482	105.062482	-94.174401	259.069912	147.177811	-25.979000	418.794025	992.245241	-450.591382	493.118958	948.040543	-438.728957	515.790568	971.192081	-424.323910	537.261517	870.624919	-439.203774	568.308790	769.198856	-404.451056	566.951135	757.717363	-286.222637	232.784488	616.085198	-381.426519	169.431815	659.205978	-335.191746	233.807715	470.579037	-399.650821	482.590797	711.081895	-420.046928	414.334258	662.977019	-396.211016	326.468210	648.585478	-394.812081	427.466741	643.400839	-364.717053	281.497639	400.793259	-337.812300	-204.120796	864.969101	-210.037993	-50.919076	80.372362	-411.187807	-50.947808	79.860293	-13.776629	
1255	6.2750	793.047148	1218.147094	-79.559587	810.750827	1202.205845	-418.239793	832.396562	1295.610246	-250.182726	765.743255	1139.730454	-239.499189	571.428739	1108.410699	62.545393	693.690730	950.406132	-34.572206	573.701511	1101.984181	-528.521262	689.009371	942.822160	-432.668749	249.792017	1192.396286	-219.742427	394.501848	1145.519725	-402.648568	395.953303	1102.432026	-71.026793	402.957805	1085.542171	-371.476157	407.328703	1055.782914	-112.649483	291.732940	1215.885537	-186.043957	289.536333	1223.290563	-246.113239	322.786998	1025.308318	-47.542683	361.292971	1099.387823	-428.329626	324.731370	905.339020	-24.469113	335.830059	815.068254	-26.517924	302.527387	735.071024	-35.114113	371.671617	812.012167	-38.931140	287.591863	630.066531	-46.051122	279.065189	604.785720	-155.677854	253.048968	512.390239	-20.345966	254.131395	425.978732	-36.544643	213.715575	349.340423	-42.246910	279.154040	423.727543	-68.312381	191.399024	274.226717	-50.108398	132.063524	285.043615	-99.575020	339.840941	99.471945	-93.826223	249.979805	145.144296	-25.887565	418.293504	995.082462	-447.629358	493.744910	952.279519	-437.463788	518.556655	976.514168	-421.730131	539.103110	875.597612	-437.391234	573.384890	775.469883	-403.464894	571.984691	764.161642	-284.789036	239.610991	617.510687	-381.213519	174.128983	659.789807	-335.052133	243.942191	473.146850	-400.083894	488.865915	716.294851	-419.507260	421.148440	667.117704	-395.699325	333.371030	651.413493	-394.681070	434.801718	647.856193	-364.665772	293.536483	404.737036	-338.151163	-204.215981	864.936804	-210.168672	-50.920978	80.337210	-411.204437	-50.897688	79.773401	-13.791210	
